{
	"asset":{
		"generator":"Khronos glTF Blender I/O v4.1.62",
		"version":"2.0"
	},
	"scene":0,
	"scenes":[
		{
			"name":"Scene",
			"nodes":[
				0,
				1,
				2,
				3,
				4,
				6
			]
		}
	],
	"nodes":[
		{
			"mesh":0,
			"name":"Body",
			"rotation":[
				0,
				-0.08715575188398361,
				0,
				0.9961947202682495
			],
			"translation":[
				0,
				0.9375337958335876,
				0
			]
		},
		{
			"mesh":1,
			"name":"Leg.L",
			"rotation":[
				0.3826834261417389,
				0,
				0,
				0.9238795638084412
			],
			"translation":[
				-0.1937321126461029,
				0.5124820470809937,
				0
			]
		},
		{
			"mesh":2,
			"name":"Leg.R",
			"rotation":[
				-0.3826834261417389,
				0,
				0,
				0.9238795638084412
			],
			"translation":[
				0.19373200833797455,
				0.5124820470809937,
				0
			]
		},
		{
			"mesh":3,
			"name":"Arm.L",
			"rotation":[
				-0.3826834261417389,
				0,
				0,
				0.9238795638084412
			],
			"translation":[
				-0.38552987575531006,
				1.2780073881149292,
				0
			]
		},
		{
			"mesh":4,
			"name":"Head",
			"translation":[
				0,
				1.5176985263824463,
				0
			]
		},
		{
			"name":"AttachPoint",
			"translation":[
				0,
				-0.5200000405311584,
				0
			]
		},
		{
			"children":[
				5
			],
			"mesh":5,
			"name":"Arm.R",
			"rotation":[
				0.3826834261417389,
				0,
				0,
				0.9238795638084412
			],
			"translation":[
				0.3855299949645996,
				1.2780073881149292,
				0
			]
		}
	],
	"animations":[
		{
			"channels":[
				{
					"sampler":0,
					"target":{
						"node":0,
						"path":"translation"
					}
				},
				{
					"sampler":1,
					"target":{
						"node":0,
						"path":"rotation"
					}
				},
				{
					"sampler":2,
					"target":{
						"node":1,
						"path":"translation"
					}
				},
				{
					"sampler":3,
					"target":{
						"node":1,
						"path":"rotation"
					}
				},
				{
					"sampler":4,
					"target":{
						"node":2,
						"path":"translation"
					}
				},
				{
					"sampler":5,
					"target":{
						"node":2,
						"path":"rotation"
					}
				},
				{
					"sampler":6,
					"target":{
						"node":3,
						"path":"translation"
					}
				},
				{
					"sampler":7,
					"target":{
						"node":3,
						"path":"rotation"
					}
				},
				{
					"sampler":8,
					"target":{
						"node":3,
						"path":"scale"
					}
				},
				{
					"sampler":9,
					"target":{
						"node":4,
						"path":"translation"
					}
				},
				{
					"sampler":10,
					"target":{
						"node":4,
						"path":"rotation"
					}
				},
				{
					"sampler":11,
					"target":{
						"node":4,
						"path":"scale"
					}
				},
				{
					"sampler":12,
					"target":{
						"node":6,
						"path":"translation"
					}
				},
				{
					"sampler":13,
					"target":{
						"node":6,
						"path":"rotation"
					}
				},
				{
					"sampler":14,
					"target":{
						"node":6,
						"path":"scale"
					}
				}
			],
			"name":"Stand",
			"samplers":[
				{
					"input":28,
					"interpolation":"LINEAR",
					"output":29
				},
				{
					"input":28,
					"interpolation":"LINEAR",
					"output":30
				},
				{
					"input":28,
					"interpolation":"LINEAR",
					"output":31
				},
				{
					"input":28,
					"interpolation":"LINEAR",
					"output":32
				},
				{
					"input":28,
					"interpolation":"LINEAR",
					"output":33
				},
				{
					"input":28,
					"interpolation":"LINEAR",
					"output":34
				},
				{
					"input":35,
					"interpolation":"STEP",
					"output":36
				},
				{
					"input":37,
					"interpolation":"LINEAR",
					"output":38
				},
				{
					"input":35,
					"interpolation":"STEP",
					"output":39
				},
				{
					"input":35,
					"interpolation":"STEP",
					"output":40
				},
				{
					"input":37,
					"interpolation":"LINEAR",
					"output":41
				},
				{
					"input":35,
					"interpolation":"STEP",
					"output":42
				},
				{
					"input":35,
					"interpolation":"STEP",
					"output":43
				},
				{
					"input":37,
					"interpolation":"LINEAR",
					"output":44
				},
				{
					"input":35,
					"interpolation":"STEP",
					"output":45
				}
			]
		},
		{
			"channels":[
				{
					"sampler":0,
					"target":{
						"node":0,
						"path":"translation"
					}
				},
				{
					"sampler":1,
					"target":{
						"node":0,
						"path":"rotation"
					}
				},
				{
					"sampler":2,
					"target":{
						"node":0,
						"path":"scale"
					}
				},
				{
					"sampler":3,
					"target":{
						"node":1,
						"path":"translation"
					}
				},
				{
					"sampler":4,
					"target":{
						"node":1,
						"path":"rotation"
					}
				},
				{
					"sampler":5,
					"target":{
						"node":1,
						"path":"scale"
					}
				},
				{
					"sampler":6,
					"target":{
						"node":2,
						"path":"translation"
					}
				},
				{
					"sampler":7,
					"target":{
						"node":2,
						"path":"rotation"
					}
				},
				{
					"sampler":8,
					"target":{
						"node":2,
						"path":"scale"
					}
				},
				{
					"sampler":9,
					"target":{
						"node":3,
						"path":"translation"
					}
				},
				{
					"sampler":10,
					"target":{
						"node":3,
						"path":"rotation"
					}
				},
				{
					"sampler":11,
					"target":{
						"node":3,
						"path":"scale"
					}
				},
				{
					"sampler":12,
					"target":{
						"node":4,
						"path":"translation"
					}
				},
				{
					"sampler":13,
					"target":{
						"node":4,
						"path":"rotation"
					}
				},
				{
					"sampler":14,
					"target":{
						"node":4,
						"path":"scale"
					}
				},
				{
					"sampler":15,
					"target":{
						"node":6,
						"path":"translation"
					}
				},
				{
					"sampler":16,
					"target":{
						"node":6,
						"path":"rotation"
					}
				},
				{
					"sampler":17,
					"target":{
						"node":6,
						"path":"scale"
					}
				}
			],
			"name":"Walk",
			"samplers":[
				{
					"input":46,
					"interpolation":"LINEAR",
					"output":47
				},
				{
					"input":46,
					"interpolation":"LINEAR",
					"output":48
				},
				{
					"input":49,
					"interpolation":"STEP",
					"output":50
				},
				{
					"input":46,
					"interpolation":"LINEAR",
					"output":51
				},
				{
					"input":46,
					"interpolation":"LINEAR",
					"output":52
				},
				{
					"input":49,
					"interpolation":"STEP",
					"output":53
				},
				{
					"input":46,
					"interpolation":"LINEAR",
					"output":54
				},
				{
					"input":46,
					"interpolation":"LINEAR",
					"output":55
				},
				{
					"input":49,
					"interpolation":"STEP",
					"output":56
				},
				{
					"input":46,
					"interpolation":"LINEAR",
					"output":57
				},
				{
					"input":46,
					"interpolation":"LINEAR",
					"output":58
				},
				{
					"input":49,
					"interpolation":"STEP",
					"output":59
				},
				{
					"input":46,
					"interpolation":"LINEAR",
					"output":60
				},
				{
					"input":49,
					"interpolation":"STEP",
					"output":61
				},
				{
					"input":49,
					"interpolation":"STEP",
					"output":62
				},
				{
					"input":46,
					"interpolation":"LINEAR",
					"output":63
				},
				{
					"input":46,
					"interpolation":"LINEAR",
					"output":64
				},
				{
					"input":49,
					"interpolation":"STEP",
					"output":65
				}
			]
		}
	],
	"materials":[
		{
			"doubleSided":true,
			"name":"Material",
			"pbrMetallicRoughness":{
				"baseColorTexture":{
					"index":0
				},
				"metallicFactor":0,
				"roughnessFactor":0.4000000059604645
			}
		},
		{
			"doubleSided":true,
			"name":"Face",
			"pbrMetallicRoughness":{
				"baseColorTexture":{
					"index":1
				},
				"metallicFactor":0,
				"roughnessFactor":0.5
			}
		}
	],
	"meshes":[
		{
			"name":"Cube",
			"primitives":[
				{
					"attributes":{
						"POSITION":0,
						"NORMAL":1,
						"TEXCOORD_0":2
					},
					"indices":3,
					"material":0
				}
			]
		},
		{
			"name":"Cube.001",
			"primitives":[
				{
					"attributes":{
						"POSITION":4,
						"NORMAL":5,
						"TEXCOORD_0":6
					},
					"indices":7,
					"material":0
				}
			]
		},
		{
			"name":"Cube.002",
			"primitives":[
				{
					"attributes":{
						"POSITION":8,
						"NORMAL":9,
						"TEXCOORD_0":10
					},
					"indices":11,
					"material":0
				}
			]
		},
		{
			"name":"Cube.003",
			"primitives":[
				{
					"attributes":{
						"POSITION":12,
						"NORMAL":13,
						"TEXCOORD_0":14
					},
					"indices":15,
					"material":0
				}
			]
		},
		{
			"name":"Cube.005",
			"primitives":[
				{
					"attributes":{
						"POSITION":16,
						"NORMAL":17,
						"TEXCOORD_0":18
					},
					"indices":19,
					"material":0
				},
				{
					"attributes":{
						"POSITION":20,
						"NORMAL":21,
						"TEXCOORD_0":22
					},
					"indices":23,
					"material":1
				}
			]
		},
		{
			"name":"Cube.006",
			"primitives":[
				{
					"attributes":{
						"POSITION":24,
						"NORMAL":25,
						"TEXCOORD_0":26
					},
					"indices":27,
					"material":0
				}
			]
		}
	],
	"textures":[
		{
			"sampler":0,
			"source":0
		},
		{
			"sampler":0,
			"source":1
		}
	],
	"images":[
		{
			"mimeType":"image/png",
			"name":"DiamondSkin",
			"uri":"DiamondSkin.png"
		},
		{
			"mimeType":"image/png",
			"name":"face",
			"uri":"face.png"
		}
	],
	"accessors":[
		{
			"bufferView":0,
			"componentType":5126,
			"count":24,
			"max":[
				0.28928014636039734,
				0.4113171696662903,
				0.1620863825082779
			],
			"min":[
				-0.28928014636039734,
				-0.4113171696662903,
				-0.1620863825082779
			],
			"type":"VEC3"
		},
		{
			"bufferView":1,
			"componentType":5126,
			"count":24,
			"type":"VEC3"
		},
		{
			"bufferView":2,
			"componentType":5126,
			"count":24,
			"type":"VEC2"
		},
		{
			"bufferView":3,
			"componentType":5123,
			"count":36,
			"type":"SCALAR"
		},
		{
			"bufferView":4,
			"componentType":5126,
			"count":24,
			"max":[
				0.06259322911500931,
				0,
				0.07984744012355804
			],
			"min":[
				-0.06259319931268692,
				-0.4521732032299042,
				-0.07984744012355804
			],
			"type":"VEC3"
		},
		{
			"bufferView":5,
			"componentType":5126,
			"count":24,
			"type":"VEC3"
		},
		{
			"bufferView":6,
			"componentType":5126,
			"count":24,
			"type":"VEC2"
		},
		{
			"bufferView":7,
			"componentType":5123,
			"count":36,
			"type":"SCALAR"
		},
		{
			"bufferView":8,
			"componentType":5126,
			"count":24,
			"max":[
				0.06259319931268692,
				0,
				0.07984744012355804
			],
			"min":[
				-0.06259322911500931,
				-0.4521732032299042,
				-0.07984744012355804
			],
			"type":"VEC3"
		},
		{
			"bufferView":9,
			"componentType":5126,
			"count":24,
			"type":"VEC3"
		},
		{
			"bufferView":10,
			"componentType":5126,
			"count":24,
			"type":"VEC2"
		},
		{
			"bufferView":11,
			"componentType":5123,
			"count":36,
			"type":"SCALAR"
		},
		{
			"bufferView":12,
			"componentType":5126,
			"count":24,
			"max":[
				0.055460501462221146,
				0,
				0.049661166965961456
			],
			"min":[
				-0.05546047165989876,
				-0.5862029194831848,
				-0.049661166965961456
			],
			"type":"VEC3"
		},
		{
			"bufferView":13,
			"componentType":5126,
			"count":24,
			"type":"VEC3"
		},
		{
			"bufferView":14,
			"componentType":5126,
			"count":24,
			"type":"VEC2"
		},
		{
			"bufferView":15,
			"componentType":5123,
			"count":36,
			"type":"SCALAR"
		},
		{
			"bufferView":16,
			"componentType":5126,
			"count":24,
			"max":[
				0.13769979774951935,
				0.14574232697486877,
				0.10892806947231293
			],
			"min":[
				-0.13769979774951935,
				-0.14574232697486877,
				-0.10892806947231293
			],
			"type":"VEC3"
		},
		{
			"bufferView":17,
			"componentType":5126,
			"count":24,
			"type":"VEC3"
		},
		{
			"bufferView":18,
			"componentType":5126,
			"count":24,
			"type":"VEC2"
		},
		{
			"bufferView":19,
			"componentType":5123,
			"count":36,
			"type":"SCALAR"
		},
		{
			"bufferView":20,
			"componentType":5126,
			"count":4,
			"max":[
				0.12918183207511902,
				0.1377241611480713,
				-0.11295865476131439
			],
			"min":[
				-0.13093414902687073,
				-0.12239181995391846,
				-0.11295868456363678
			],
			"type":"VEC3"
		},
		{
			"bufferView":21,
			"componentType":5126,
			"count":4,
			"type":"VEC3"
		},
		{
			"bufferView":22,
			"componentType":5126,
			"count":4,
			"type":"VEC2"
		},
		{
			"bufferView":23,
			"componentType":5123,
			"count":6,
			"type":"SCALAR"
		},
		{
			"bufferView":24,
			"componentType":5126,
			"count":24,
			"max":[
				0.055460501462221146,
				0,
				0.049661166965961456
			],
			"min":[
				-0.05546047165989876,
				-0.5862029194831848,
				-0.049661166965961456
			],
			"type":"VEC3"
		},
		{
			"bufferView":25,
			"componentType":5126,
			"count":24,
			"type":"VEC3"
		},
		{
			"bufferView":26,
			"componentType":5126,
			"count":24,
			"type":"VEC2"
		},
		{
			"bufferView":27,
			"componentType":5123,
			"count":36,
			"type":"SCALAR"
		},
		{
			"bufferView":28,
			"componentType":5126,
			"count":1,
			"max":[
				0.016666666666666666
			],
			"min":[
				0.016666666666666666
			],
			"type":"SCALAR"
		},
		{
			"bufferView":29,
			"componentType":5126,
			"count":1,
			"type":"VEC3"
		},
		{
			"bufferView":30,
			"componentType":5126,
			"count":1,
			"type":"VEC4"
		},
		{
			"bufferView":31,
			"componentType":5126,
			"count":1,
			"type":"VEC3"
		},
		{
			"bufferView":32,
			"componentType":5126,
			"count":1,
			"type":"VEC4"
		},
		{
			"bufferView":33,
			"componentType":5126,
			"count":1,
			"type":"VEC3"
		},
		{
			"bufferView":34,
			"componentType":5126,
			"count":1,
			"type":"VEC4"
		},
		{
			"bufferView":35,
			"componentType":5126,
			"count":2,
			"max":[
				0.6666666666666666
			],
			"min":[
				0.016666666666666666
			],
			"type":"SCALAR"
		},
		{
			"bufferView":36,
			"componentType":5126,
			"count":2,
			"type":"VEC3"
		},
		{
			"bufferView":37,
			"componentType":5126,
			"count":40,
			"max":[
				0.6666666666666666
			],
			"min":[
				0.016666666666666666
			],
			"type":"SCALAR"
		},
		{
			"bufferView":38,
			"componentType":5126,
			"count":40,
			"type":"VEC4"
		},
		{
			"bufferView":39,
			"componentType":5126,
			"count":2,
			"type":"VEC3"
		},
		{
			"bufferView":40,
			"componentType":5126,
			"count":2,
			"type":"VEC3"
		},
		{
			"bufferView":41,
			"componentType":5126,
			"count":40,
			"type":"VEC4"
		},
		{
			"bufferView":42,
			"componentType":5126,
			"count":2,
			"type":"VEC3"
		},
		{
			"bufferView":43,
			"componentType":5126,
			"count":2,
			"type":"VEC3"
		},
		{
			"bufferView":44,
			"componentType":5126,
			"count":40,
			"type":"VEC4"
		},
		{
			"bufferView":45,
			"componentType":5126,
			"count":2,
			"type":"VEC3"
		},
		{
			"bufferView":46,
			"componentType":5126,
			"count":41,
			"max":[
				0.6666666666666666
			],
			"min":[
				0
			],
			"type":"SCALAR"
		},
		{
			"bufferView":47,
			"componentType":5126,
			"count":41,
			"type":"VEC3"
		},
		{
			"bufferView":48,
			"componentType":5126,
			"count":41,
			"type":"VEC4"
		},
		{
			"bufferView":49,
			"componentType":5126,
			"count":2,
			"max":[
				0.6666666666666666
			],
			"min":[
				0
			],
			"type":"SCALAR"
		},
		{
			"bufferView":50,
			"componentType":5126,
			"count":2,
			"type":"VEC3"
		},
		{
			"bufferView":51,
			"componentType":5126,
			"count":41,
			"type":"VEC3"
		},
		{
			"bufferView":52,
			"componentType":5126,
			"count":41,
			"type":"VEC4"
		},
		{
			"bufferView":53,
			"componentType":5126,
			"count":2,
			"type":"VEC3"
		},
		{
			"bufferView":54,
			"componentType":5126,
			"count":41,
			"type":"VEC3"
		},
		{
			"bufferView":55,
			"componentType":5126,
			"count":41,
			"type":"VEC4"
		},
		{
			"bufferView":56,
			"componentType":5126,
			"count":2,
			"type":"VEC3"
		},
		{
			"bufferView":57,
			"componentType":5126,
			"count":41,
			"type":"VEC3"
		},
		{
			"bufferView":58,
			"componentType":5126,
			"count":41,
			"type":"VEC4"
		},
		{
			"bufferView":59,
			"componentType":5126,
			"count":2,
			"type":"VEC3"
		},
		{
			"bufferView":60,
			"componentType":5126,
			"count":41,
			"type":"VEC3"
		},
		{
			"bufferView":61,
			"componentType":5126,
			"count":2,
			"type":"VEC4"
		},
		{
			"bufferView":62,
			"componentType":5126,
			"count":2,
			"type":"VEC3"
		},
		{
			"bufferView":63,
			"componentType":5126,
			"count":41,
			"type":"VEC3"
		},
		{
			"bufferView":64,
			"componentType":5126,
			"count":41,
			"type":"VEC4"
		},
		{
			"bufferView":65,
			"componentType":5126,
			"count":2,
			"type":"VEC3"
		}
	],
	"bufferViews":[
		{
			"buffer":0,
			"byteLength":288,
			"byteOffset":0,
			"target":34962
		},
		{
			"buffer":0,
			"byteLength":288,
			"byteOffset":288,
			"target":34962
		},
		{
			"buffer":0,
			"byteLength":192,
			"byteOffset":576,
			"target":34962
		},
		{
			"buffer":0,
			"byteLength":72,
			"byteOffset":768,
			"target":34963
		},
		{
			"buffer":0,
			"byteLength":288,
			"byteOffset":840,
			"target":34962
		},
		{
			"buffer":0,
			"byteLength":288,
			"byteOffset":1128,
			"target":34962
		},
		{
			"buffer":0,
			"byteLength":192,
			"byteOffset":1416,
			"target":34962
		},
		{
			"buffer":0,
			"byteLength":72,
			"byteOffset":1608,
			"target":34963
		},
		{
			"buffer":0,
			"byteLength":288,
			"byteOffset":1680,
			"target":34962
		},
		{
			"buffer":0,
			"byteLength":288,
			"byteOffset":1968,
			"target":34962
		},
		{
			"buffer":0,
			"byteLength":192,
			"byteOffset":2256,
			"target":34962
		},
		{
			"buffer":0,
			"byteLength":72,
			"byteOffset":2448,
			"target":34963
		},
		{
			"buffer":0,
			"byteLength":288,
			"byteOffset":2520,
			"target":34962
		},
		{
			"buffer":0,
			"byteLength":288,
			"byteOffset":2808,
			"target":34962
		},
		{
			"buffer":0,
			"byteLength":192,
			"byteOffset":3096,
			"target":34962
		},
		{
			"buffer":0,
			"byteLength":72,
			"byteOffset":3288,
			"target":34963
		},
		{
			"buffer":0,
			"byteLength":288,
			"byteOffset":3360,
			"target":34962
		},
		{
			"buffer":0,
			"byteLength":288,
			"byteOffset":3648,
			"target":34962
		},
		{
			"buffer":0,
			"byteLength":192,
			"byteOffset":3936,
			"target":34962
		},
		{
			"buffer":0,
			"byteLength":72,
			"byteOffset":4128,
			"target":34963
		},
		{
			"buffer":0,
			"byteLength":48,
			"byteOffset":4200,
			"target":34962
		},
		{
			"buffer":0,
			"byteLength":48,
			"byteOffset":4248,
			"target":34962
		},
		{
			"buffer":0,
			"byteLength":32,
			"byteOffset":4296,
			"target":34962
		},
		{
			"buffer":0,
			"byteLength":12,
			"byteOffset":4328,
			"target":34963
		},
		{
			"buffer":0,
			"byteLength":288,
			"byteOffset":4340,
			"target":34962
		},
		{
			"buffer":0,
			"byteLength":288,
			"byteOffset":4628,
			"target":34962
		},
		{
			"buffer":0,
			"byteLength":192,
			"byteOffset":4916,
			"target":34962
		},
		{
			"buffer":0,
			"byteLength":72,
			"byteOffset":5108,
			"target":34963
		},
		{
			"buffer":0,
			"byteLength":4,
			"byteOffset":5180
		},
		{
			"buffer":0,
			"byteLength":12,
			"byteOffset":5184
		},
		{
			"buffer":0,
			"byteLength":16,
			"byteOffset":5196
		},
		{
			"buffer":0,
			"byteLength":12,
			"byteOffset":5212
		},
		{
			"buffer":0,
			"byteLength":16,
			"byteOffset":5224
		},
		{
			"buffer":0,
			"byteLength":12,
			"byteOffset":5240
		},
		{
			"buffer":0,
			"byteLength":16,
			"byteOffset":5252
		},
		{
			"buffer":0,
			"byteLength":8,
			"byteOffset":5268
		},
		{
			"buffer":0,
			"byteLength":24,
			"byteOffset":5276
		},
		{
			"buffer":0,
			"byteLength":160,
			"byteOffset":5300
		},
		{
			"buffer":0,
			"byteLength":640,
			"byteOffset":5460
		},
		{
			"buffer":0,
			"byteLength":24,
			"byteOffset":6100
		},
		{
			"buffer":0,
			"byteLength":24,
			"byteOffset":6124
		},
		{
			"buffer":0,
			"byteLength":640,
			"byteOffset":6148
		},
		{
			"buffer":0,
			"byteLength":24,
			"byteOffset":6788
		},
		{
			"buffer":0,
			"byteLength":24,
			"byteOffset":6812
		},
		{
			"buffer":0,
			"byteLength":640,
			"byteOffset":6836
		},
		{
			"buffer":0,
			"byteLength":24,
			"byteOffset":7476
		},
		{
			"buffer":0,
			"byteLength":164,
			"byteOffset":7500
		},
		{
			"buffer":0,
			"byteLength":492,
			"byteOffset":7664
		},
		{
			"buffer":0,
			"byteLength":656,
			"byteOffset":8156
		},
		{
			"buffer":0,
			"byteLength":8,
			"byteOffset":8812
		},
		{
			"buffer":0,
			"byteLength":24,
			"byteOffset":8820
		},
		{
			"buffer":0,
			"byteLength":492,
			"byteOffset":8844
		},
		{
			"buffer":0,
			"byteLength":656,
			"byteOffset":9336
		},
		{
			"buffer":0,
			"byteLength":24,
			"byteOffset":9992
		},
		{
			"buffer":0,
			"byteLength":492,
			"byteOffset":10016
		},
		{
			"buffer":0,
			"byteLength":656,
			"byteOffset":10508
		},
		{
			"buffer":0,
			"byteLength":24,
			"byteOffset":11164
		},
		{
			"buffer":0,
			"byteLength":492,
			"byteOffset":11188
		},
		{
			"buffer":0,
			"byteLength":656,
			"byteOffset":11680
		},
		{
			"buffer":0,
			"byteLength":24,
			"byteOffset":12336
		},
		{
			"buffer":0,
			"byteLength":492,
			"byteOffset":12360
		},
		{
			"buffer":0,
			"byteLength":32,
			"byteOffset":12852
		},
		{
			"buffer":0,
			"byteLength":24,
			"byteOffset":12884
		},
		{
			"buffer":0,
			"byteLength":492,
			"byteOffset":12908
		},
		{
			"buffer":0,
			"byteLength":656,
			"byteOffset":13400
		},
		{
			"buffer":0,
			"byteLength":24,
			"byteOffset":14056
		}
	],
	"samplers":[
		{
			"magFilter":9729,
			"minFilter":9987
		}
	],
	"buffers":[
		{
			"byteLength":14080,
			"uri":"Robot.bin"
		}
	]
}
