{
	"asset":{
		"generator":"Khronos glTF Blender I/O v4.1.62",
		"version":"2.0"
	},
	"scene":0,
	"scenes":[
		{
			"name":"Scene",
			"nodes":[
				0,
				1,
				2
			]
		}
	],
	"nodes":[
		{
			"mesh":0,
			"name":"StageMap"
		},
		{
			"mesh":1,
			"name":"Cube",
			"translation":[
				-1.5313576459884644,
				0.5635733008384705,
				-1.6876055002212524
			]
		},
		{
			"mesh":2,
			"name":"Wall",
			"translation":[
				-16.40806007385254,
				0.5321410298347473,
				0.49075543880462646
			]
		}
	],
	"materials":[
		{
			"doubleSided":true,
			"name":"mat1",
			"normalTexture":{
				"index":0
			},
			"pbrMetallicRoughness":{
				"baseColorTexture":{
					"index":1
				},
				"metallicFactor":0,
				"roughnessFactor":0.5
			}
		},
		{
			"doubleSided":true,
			"name":"Material",
			"normalTexture":{
				"index":2
			},
			"pbrMetallicRoughness":{
				"baseColorTexture":{
					"index":3
				},
				"metallicFactor":0,
				"roughnessFactor":0.5
			}
		}
	],
	"meshes":[
		{
			"name":"obj1",
			"primitives":[
				{
					"attributes":{
						"POSITION":0,
						"NORMAL":1,
						"TEXCOORD_0":2
					},
					"indices":3,
					"material":0
				},
				{
					"attributes":{
						"POSITION":4,
						"NORMAL":5,
						"TEXCOORD_0":6
					},
					"indices":7,
					"material":1
				}
			]
		},
		{
			"name":"obj1.001",
			"primitives":[
				{
					"attributes":{
						"POSITION":8,
						"NORMAL":9,
						"TEXCOORD_0":10
					},
					"indices":11,
					"material":1
				}
			]
		},
		{
			"name":"obj1.002",
			"primitives":[
				{
					"attributes":{
						"POSITION":12,
						"NORMAL":13,
						"TEXCOORD_0":14
					},
					"indices":15,
					"material":1
				}
			]
		}
	],
	"textures":[
		{
			"sampler":0,
			"source":0
		},
		{
			"sampler":0,
			"source":1
		},
		{
			"sampler":0,
			"source":2
		},
		{
			"sampler":0,
			"source":3
		}
	],
	"images":[
		{
			"mimeType":"image/png",
			"name":"grs.normal",
			"uri":"grs_normal.png"
		},
		{
			"mimeType":"image/png",
			"name":"grs.png",
			"uri":"grs_png.png"
		},
		{
			"mimeType":"image/png",
			"name":"stone.normal",
			"uri":"stone_normal.png"
		},
		{
			"mimeType":"image/png",
			"name":"stone",
			"uri":"stone.png"
		}
	],
	"accessors":[
		{
			"bufferView":0,
			"componentType":5126,
			"count":8944,
			"max":[
				29.999971389770508,
				4.160206317901611,
				29.999971389770508
			],
			"min":[
				-29.999971389770508,
				-1.2048132419586182,
				-29.999971389770508
			],
			"type":"VEC3"
		},
		{
			"bufferView":1,
			"componentType":5126,
			"count":8944,
			"type":"VEC3"
		},
		{
			"bufferView":2,
			"componentType":5126,
			"count":8944,
			"type":"VEC2"
		},
		{
			"bufferView":3,
			"componentType":5123,
			"count":13416,
			"type":"SCALAR"
		},
		{
			"bufferView":4,
			"componentType":5126,
			"count":1056,
			"max":[
				29.999971389770508,
				3.7477684020996094,
				19.199981689453125
			],
			"min":[
				-29.999971389770508,
				-0.8501142263412476,
				-28.799972534179688
			],
			"type":"VEC3"
		},
		{
			"bufferView":5,
			"componentType":5126,
			"count":1056,
			"type":"VEC3"
		},
		{
			"bufferView":6,
			"componentType":5126,
			"count":1056,
			"type":"VEC2"
		},
		{
			"bufferView":7,
			"componentType":5123,
			"count":1584,
			"type":"SCALAR"
		},
		{
			"bufferView":8,
			"componentType":5126,
			"count":24,
			"max":[
				0.5768927335739136,
				0.5768926739692688,
				0.5768929719924927
			],
			"min":[
				-0.5768924951553345,
				-0.5768927335739136,
				-0.5768927335739136
			],
			"type":"VEC3"
		},
		{
			"bufferView":9,
			"componentType":5126,
			"count":24,
			"type":"VEC3"
		},
		{
			"bufferView":10,
			"componentType":5126,
			"count":24,
			"type":"VEC2"
		},
		{
			"bufferView":11,
			"componentType":5123,
			"count":36,
			"type":"SCALAR"
		},
		{
			"bufferView":12,
			"componentType":5126,
			"count":34,
			"max":[
				10.102182388305664,
				2.0272951126098633,
				0.5468654632568359
			],
			"min":[
				-4.547977447509766,
				-2.027294874191284,
				-0.5468664169311523
			],
			"type":"VEC3"
		},
		{
			"bufferView":13,
			"componentType":5126,
			"count":34,
			"type":"VEC3"
		},
		{
			"bufferView":14,
			"componentType":5126,
			"count":34,
			"type":"VEC2"
		},
		{
			"bufferView":15,
			"componentType":5123,
			"count":60,
			"type":"SCALAR"
		}
	],
	"bufferViews":[
		{
			"buffer":0,
			"byteLength":107328,
			"byteOffset":0,
			"target":34962
		},
		{
			"buffer":0,
			"byteLength":107328,
			"byteOffset":107328,
			"target":34962
		},
		{
			"buffer":0,
			"byteLength":71552,
			"byteOffset":214656,
			"target":34962
		},
		{
			"buffer":0,
			"byteLength":26832,
			"byteOffset":286208,
			"target":34963
		},
		{
			"buffer":0,
			"byteLength":12672,
			"byteOffset":313040,
			"target":34962
		},
		{
			"buffer":0,
			"byteLength":12672,
			"byteOffset":325712,
			"target":34962
		},
		{
			"buffer":0,
			"byteLength":8448,
			"byteOffset":338384,
			"target":34962
		},
		{
			"buffer":0,
			"byteLength":3168,
			"byteOffset":346832,
			"target":34963
		},
		{
			"buffer":0,
			"byteLength":288,
			"byteOffset":350000,
			"target":34962
		},
		{
			"buffer":0,
			"byteLength":288,
			"byteOffset":350288,
			"target":34962
		},
		{
			"buffer":0,
			"byteLength":192,
			"byteOffset":350576,
			"target":34962
		},
		{
			"buffer":0,
			"byteLength":72,
			"byteOffset":350768,
			"target":34963
		},
		{
			"buffer":0,
			"byteLength":408,
			"byteOffset":350840,
			"target":34962
		},
		{
			"buffer":0,
			"byteLength":408,
			"byteOffset":351248,
			"target":34962
		},
		{
			"buffer":0,
			"byteLength":272,
			"byteOffset":351656,
			"target":34962
		},
		{
			"buffer":0,
			"byteLength":120,
			"byteOffset":351928,
			"target":34963
		}
	],
	"samplers":[
		{
			"magFilter":9729,
			"minFilter":9987
		}
	],
	"buffers":[
		{
			"byteLength":352048,
			"uri":"StageMap.bin"
		}
	]
}
